<svg xmlns="http://www.w3.org/2000/svg" shape-rendering="geometricPrecision" text-rendering="geometricPrecision" image-rendering="optimizeQuality" fill-rule="evenodd" clip-rule="evenodd" viewBox="0 0 512 440.86"><path fill="#957D5E" d="M511.23 89.98c-3.96 43.02-21.1 70.02-50.91 81.65 21.14 95.23 39.52 176.67-60.32 235.15-100.22 58.7-266.2 40.18-333.87-44.77-44.3-55.61-29.75-125.61-15.72-189.6C6.42 148.2-6.91 105.12 3.2 47.62 12.81-7.04 58.88-8.04 101.12 11.8c13.87 6.51 27.36 15.07 40.56 25.29 73.13-24.58 148.89-28.87 228.95 0 17.78-14.88 37.4-26.45 59.76-32.69 64.29-17.92 86.17 27.54 80.84 85.58z"/><path fill="#765A3A" d="M76.85 51.17c5.72 2.81 11.54 6.05 17.26 10.05l-33.33 65.53c-9.41-18.2-15.54-38.12-14.86-63.65.73-27.11 13.34-20.57 30.93-11.93zM435.89 51.17c-5.72 2.81-11.54 6.05-17.25 10.05l33.32 65.53c9.41-18.2 15.54-38.12 14.86-63.65-.73-27.11-13.35-20.57-30.93-11.93z"/><circle fill="#4D391D" cx="175.66" cy="166.22" r="27.29"/><circle fill="#fff" cx="180.21" cy="155.19" r="10.61"/><circle fill="#4D391D" cx="336.34" cy="166.22" r="27.29"/><circle fill="#fff" cx="330.28" cy="155.19" r="10.61"/><path fill="#E8BE92" d="M209.98 374.1h86.26c30.56 0 59.24-25 59.24-55.56v-19.68c0-128-196.66-116.03-196.66 0v29.6c0 25.09 26.06 45.64 51.16 45.64z"/><path fill="#564121" d="M226.47 267.67c10.79-6.81 45.87-6.04 59.41-.35 12.82 5.39-3.05 14.95-8.77 19.57-5.62 4.53-11.58 8.72-17.78 12.67v18.26c2.58 4.24 7.89 7.16 14.03 7.16 7.32 0 13.47-4.15 15.21-9.76 2.89 9.36-6.51 16.2-15.21 16.2-6.42 0-11.93-3.18-14.37-7.74h-2.66c-2.43 4.56-7.95 7.74-14.36 7.74-8.7 0-18.1-6.84-15.21-16.2 1.73 5.61 7.89 9.76 15.21 9.76 5.41 0 10.18-2.27 13-5.71v-20.45c-6.42-4.14-12.7-8.75-18.85-13.74-5.05-4.1-18.46-11.84-9.65-17.41z"/></svg>